<?xml version="1.0" encoding="UTF-8"?>
<svg width="1200pt" height="1200pt" version="1.1" viewBox="0 0 1200 1200" xmlns="http://www.w3.org/2000/svg">
 <g>
  <path d="m648.45 56.449c0 26.68-21.629 48.309-48.309 48.309-26.68 0-48.309-21.629-48.309-48.309 0-26.68 21.629-48.309 48.309-48.309 26.68 0 48.309 21.629 48.309 48.309"/>
  <path d="m276.89 157.18c17.152 20.441 14.484 50.914-5.9531 68.062-20.441 17.152-50.914 14.484-68.062-5.957-17.152-20.441-14.488-50.914 5.9531-68.066 20.438-17.148 50.914-14.48 68.062 5.9609"/>
  <path d="m56.707 472.46c26.273 4.6328 43.816 29.691 39.184 55.965-4.6367 26.273-29.691 43.816-55.969 39.184-26.273-4.6367-43.816-29.691-39.18-55.965 4.6328-26.277 29.688-43.82 55.965-39.184"/>
  <path d="m156.67 873.11c13.34 23.105 5.4258 52.648-17.68 65.988-23.105 13.34-52.652 5.4258-65.992-17.68s-5.4219-52.648 17.684-65.988c23.105-13.34 52.648-5.4258 65.988 17.68"/>
  <path d="m424.88 1098.1c25.074 9.1289 38 36.855 28.871 61.926-9.1289 25.074-36.852 38-61.926 28.871-25.07-9.1289-37.996-36.852-28.871-61.926 9.1289-25.07 36.855-37.996 61.926-28.871"/>
  <path d="m991.18 150.5c20.434 17.148 23.098 47.621 5.9453 68.059-17.148 20.438-47.617 23.105-68.055 5.957-20.438-17.148-23.098-47.621-5.9492-68.059 17.152-20.438 47.621-23.105 68.059-5.957"/>
  <path d="m1199.3 510.8c4.6328 26.273-12.91 51.328-39.184 55.965-26.273 4.6328-51.332-12.91-55.965-39.184-4.6328-26.273 12.91-51.332 39.184-55.965 26.273-4.6367 51.332 12.906 55.965 39.184"/>
  <path d="m940.4 930.73c25.77 0 43.512-5.918 55.012-13.02 7.2148-4.4258 11.801-9.1992 14.5-12.703 0.77344-0.85937 1.4727-1.8008 2.0742-2.8398l41.473-71.84c0.61328-1.0586 1.082-2.1562 1.4414-3.2734 1.8047-4.3945 3.7773-11.363 3.7539-20.742 0.027344-14.297-4.5586-33.512-19.039-56.934-11.621-18.812-29.566-40.516-56.992-65.441 46.684-19.113 74.828-38.609 92.113-56.613 20.461-21.156 24.941-40.914 24.793-51.418 0-0.60938-0.027344-1.1328-0.050781-1.6797 0.054687-1.1914-0.015625-2.4062-0.22656-3.6289l-14.406-81.688c-0.19531-1.1055-0.5-2.1641-0.89062-3.1719-2.4453-7.6914-9.5469-21.75-28.047-33.992-21.742-14.527-57.699-27.004-119.45-29.445 26.121-49.691 34.422-85.051 34.477-110.72 0.027344-16.984-3.8047-29.625-8.3359-38.164-2.4531-4.6562-5.0391-8.0234-7.1797-10.352-0.71094-0.91797-1.5156-1.7812-2.4414-2.5586l-63.539-53.316c-0.36328-0.30469-0.76953-0.51562-1.1523-0.78516-0.38281-0.27344-0.79687-0.55859-1.2539-0.85547-0.15625-0.089844-0.30469-0.20312-0.46094-0.28906-5.75-3.6328-16.766-8.5586-33.207-8.4805-14.883-0.003906-33.816 3.8477-57.312 14.867-18.082 8.4766-38.957 21.207-63.082 39.879-12.367-56.859-29.508-89.594-46.566-109.05-16.543-19.051-33.41-24.199-41.836-25.215-0.96094-0.17188-1.9414-0.27734-2.9531-0.27734h-82.953c-1.0117 0-1.9883 0.10547-2.9492 0.27734-8.4297 1.0117-25.301 6.1641-41.855 25.223-17.137 19.547-34.367 52.5-46.738 109.89-24.172-18.719-45.074-31.473-63.184-39.965-23.496-11.012-42.426-14.867-57.312-14.867-16.426-0.078124-27.441 4.8477-33.195 8.4805-0.16016 0.085938-0.30859 0.19922-0.46484 0.29297-0.49219 0.32031-0.9375 0.625-1.3438 0.91406-0.35156 0.25-0.72656 0.44141-1.0625 0.72266l-63.547 53.332c-0.54297 0.45312-0.98047 0.98047-1.4492 1.4883l-0.14062 0.14062c-0.27344 0.30469-0.58594 0.58203-0.83594 0.89844-2.1445 2.332-4.7461 5.7031-7.2109 10.379-4.5234 8.5312-8.3555 21.172-8.3281 38.164 0.054687 25.668 8.3516 61.031 34.48 110.72-61.754 2.4453-97.703 14.918-119.45 29.441-18.578 12.289-25.656 26.398-28.074 34.07-0.37891 0.98438-0.67578 2.0156-0.86719 3.0898l-14.402 81.688c-0.21094 1.1992-0.27734 2.3867-0.23438 3.5547-0.023438 0.56641-0.054688 1.1211-0.054688 1.7617-0.14844 10.5 4.3281 30.262 24.793 51.41 17.277 18.004 45.426 37.508 92.113 56.617-27.434 24.926-45.379 46.629-56.996 65.441-14.484 23.418-19.059 42.641-19.043 56.934-0.015625 9.3945 1.9648 16.375 3.7812 20.766 0.35547 1.1094 0.82812 2.1953 1.4297 3.2422l41.477 71.84c0.59375 1.0273 1.2852 1.9648 2.0469 2.8125 2.6953 3.5078 7.2891 8.2891 14.52 12.727 11.492 7.1094 29.242 13.02 55.012 13.02h0.19531c22.914-0.015625 52.262-4.5 90.43-16.707-2.7031 19.91-3.9102 37.359-3.9141 52.594-0.015624 41.84 8.8906 67.824 19.664 83.84 7.4219 11.109 15.613 16.91 20.918 19.699 0.97656 0.61328 2.0234 1.1328 3.1523 1.5469l77.953 28.375c1.1328 0.41016 2.2773 0.68359 3.4258 0.84375 2.6445 0.58203 6.1367 1.0781 10.391 1.0742 0.09375 0.003906 0.1875 0.003906 0.28125 0.003906 12.988 0 32.305-4.9297 54.68-22.48 18.785-14.695 40.059-38.062 63.469-75.25 23.215 36.75 44.332 59.891 62.996 74.484 22.367 17.559 41.699 22.484 54.691 22.484h0.26562c4.2695 0 7.7695-0.49609 10.414-1.0859 1.1406-0.15625 2.2812-0.42969 3.4062-0.83984l77.953-28.371c1.1211-0.41016 2.1719-0.92969 3.1445-1.543 5.3047-2.7852 13.496-8.5859 20.914-19.703 10.766-16.016 19.672-41.996 19.668-83.836-0.007812-15.238-1.2188-32.688-3.918-52.594 38.164 12.207 67.516 16.691 90.438 16.711h0.20703zm-279.89 21.426 40.305 110.73c-4.6641-2.2617-10.137-5.5703-16.461-10.469-17.711-13.793-41.582-40.328-69.246-89.516-4.6602-8.2695-15.137-11.188-23.398-6.5352-3.4375 1.9336-5.9336 4.8789-7.3594 8.2383-27.441 48.578-51.125 74.887-68.73 88.578-6.3203 4.8984-11.789 8.207-16.445 10.469l40.305-110.73-109.14-39.723-40.305 110.74c-4.7969-10.652-9.375-28.254-9.375-56.566 0-19.633 2.207-44.344 7.9922-75.129 0.019532-0.097656 0.023438-0.19922 0.042969-0.29688 0.058594-0.36719 0.10938-0.73438 0.14844-1.1055 0.023438-0.21094 0.046876-0.42188 0.054688-0.63281 0.023438-0.33984 0.035156-0.67578 0.035156-1.0195 0-0.24219 0-0.48437-0.007812-0.72656-0.011719-0.30078-0.035156-0.59375-0.054688-0.89844-0.023437-0.28125-0.054687-0.5625-0.089844-0.83594-0.035156-0.25781-0.082031-0.51562-0.12891-0.77734-0.058594-0.31641-0.125-0.62891-0.19922-0.9375-0.054688-0.22656-0.11719-0.45312-0.17969-0.67578-0.097656-0.33203-0.19922-0.66016-0.31641-0.98438-0.039063-0.10938-0.066406-0.22266-0.10547-0.32812-0.042969-0.10938-0.097656-0.21094-0.14062-0.32031-0.12109-0.30469-0.25391-0.60547-0.39062-0.90234-0.10938-0.23828-0.22266-0.46875-0.33984-0.69531-0.13281-0.25-0.27344-0.49609-0.41797-0.74219-0.14844-0.25391-0.29687-0.50391-0.46094-0.74609-0.13672-0.20703-0.28125-0.40625-0.42188-0.60547-0.18359-0.25781-0.37109-0.50781-0.57031-0.75391-0.14844-0.18359-0.30859-0.35938-0.46484-0.54297-0.20703-0.23047-0.41016-0.46094-0.62891-0.68359-0.18359-0.1875-0.375-0.35937-0.56641-0.53906-0.20703-0.19141-0.41016-0.37891-0.625-0.5625-0.22656-0.1875-0.46094-0.36719-0.69531-0.54297-0.19922-0.15234-0.40234-0.30078-0.60547-0.44531-0.25781-0.17578-0.52344-0.33984-0.79297-0.50391-0.20312-0.125-0.40625-0.25-0.61328-0.36328-0.26953-0.14844-0.54297-0.28906-0.82422-0.42188-0.23047-0.11328-0.46094-0.22656-0.69531-0.32812-0.25391-0.10938-0.51172-0.20703-0.76953-0.30469-0.28906-0.10938-0.57813-0.21094-0.87109-0.30469-0.21484-0.066406-0.42969-0.125-0.65234-0.1875-0.35938-0.097656-0.72266-0.18359-1.0898-0.25781-0.089844-0.015625-0.17578-0.046875-0.26953-0.066406-0.085937-0.015626-0.17578-0.019532-0.26953-0.035157-0.39062-0.066406-0.77734-0.12109-1.1719-0.16016-0.1875-0.019531-0.37109-0.035156-0.55859-0.050781-0.35938-0.023438-0.72656-0.035156-1.0898-0.035156-0.22266 0-0.44141 0-0.66016 0.003906-0.32031 0.011718-0.63672 0.035156-0.95312 0.0625-0.26953 0.023437-0.53125 0.050781-0.79688 0.085937-0.26953 0.035157-0.53125 0.085938-0.79688 0.13281-0.30859 0.058594-0.625 0.12109-0.92969 0.19922-0.21875 0.054688-0.44141 0.11328-0.66016 0.17578-0.33984 0.097656-0.68359 0.20703-1.0156 0.32422-0.10156 0.035157-0.20312 0.058594-0.30469 0.097657-49.301 18.559-83.391 24.152-105.94 24.129-10.215-0.011719-18.031-1.1172-24-2.6289l102.06-58.922-58.074-100.58-102.06 58.926c1.8945-6.7305 5.4336-15.25 11.883-25.75 11.816-19.172 33.453-44.648 71.707-76.023 0.23828-0.19531 0.44922-0.41016 0.67188-0.61328 0.13672-0.125 0.27734-0.24219 0.41016-0.375 0.55469-0.53906 1.0664-1.1133 1.5352-1.707 0.085938-0.11328 0.16797-0.23047 0.25781-0.34766 0.44922-0.60547 0.85938-1.2266 1.2188-1.875 0.039062-0.070313 0.082031-0.13672 0.12109-0.20313 0.39844-0.73437 0.72656-1.4922 1.0078-2.2695 0.023437-0.066406 0.0625-0.125 0.085937-0.19531 0.039063-0.10938 0.058594-0.21875 0.097657-0.32812 0.10547-0.31641 0.19922-0.63281 0.28516-0.95312 0.066406-0.25 0.12891-0.5 0.1875-0.75391 0.058594-0.27344 0.10938-0.54687 0.15625-0.82812 0.050781-0.29297 0.097656-0.58984 0.13281-0.88281 0.027343-0.23828 0.046874-0.47656 0.0625-0.71484 0.023437-0.32031 0.046874-0.64453 0.050781-0.96875 0.003906-0.22656-0.003907-0.45312-0.007813-0.67578-0.007812-0.32422-0.019531-0.64453-0.046875-0.96875-0.019531-0.24219-0.054687-0.48438-0.082031-0.72656-0.035156-0.29688-0.074219-0.59375-0.125-0.88672-0.046875-0.26953-0.10547-0.53516-0.16797-0.80469-0.058593-0.26562-0.11719-0.53125-0.19141-0.78906-0.074219-0.28125-0.16797-0.55859-0.26172-0.83594-0.082031-0.24609-0.16797-0.49219-0.25781-0.73438-0.10156-0.26562-0.21484-0.52734-0.33203-0.78906-0.11328-0.25781-0.22656-0.51562-0.35937-0.76953-0.10938-0.22266-0.23047-0.44141-0.35547-0.65625-0.16797-0.29687-0.33594-0.58594-0.51953-0.87109-0.10547-0.16406-0.21094-0.32422-0.32422-0.48438-0.22656-0.33594-0.47266-0.66016-0.72656-0.98047-0.046875-0.058594-0.085937-0.12109-0.13672-0.17969-0.046876-0.054688-0.097657-0.10547-0.14844-0.16016-0.28125-0.33203-0.57422-0.65625-0.87891-0.96875-0.097656-0.10156-0.19922-0.20703-0.30078-0.30469-0.30078-0.28906-0.60937-0.56641-0.92969-0.83594-0.125-0.10547-0.25-0.21094-0.37891-0.3125-0.30078-0.23828-0.61328-0.46094-0.92969-0.67969-0.16016-0.10938-0.32031-0.21875-0.48438-0.32422-0.29297-0.1875-0.59375-0.35938-0.89844-0.53125-0.19922-0.11328-0.40234-0.21875-0.60938-0.32422-0.28906-0.14453-0.57812-0.27734-0.875-0.40625-0.23047-0.10156-0.46484-0.19531-0.69922-0.28906-0.14844-0.054688-0.28906-0.125-0.44141-0.17969-60.211-21.129-90.996-42.539-106.05-58.332-2.9805-3.1562-5.3477-6.0547-7.2734-8.7031l116.02 20.457 20.164-114.38-116-20.457c1.5547-1.0625 3.2461-2.1406 5.1602-3.25 17.695-10.09 52.656-21.059 117.66-21.027 2.168 0 4.3516 0.011719 6.5547 0.035157 0.027344 0 0.058594-0.003907 0.085938-0.003907 0.046874 0 0.089843 0.007813 0.13672 0.007813 0.17188 0 0.34375-0.027344 0.51562-0.035156 0.46875-0.015626 0.92969-0.039063 1.3867-0.089844 0.25-0.027344 0.5-0.066406 0.75-0.10547 0.46094-0.074219 0.91797-0.16797 1.3672-0.27344 0.20703-0.050782 0.41406-0.097657 0.625-0.15234 0.65625-0.18359 1.2969-0.40234 1.918-0.66016 0.089844-0.035157 0.17578-0.085938 0.26953-0.125 0.56641-0.24609 1.1133-0.52734 1.6484-0.82813 0.082031-0.046874 0.16797-0.078124 0.25-0.125 0.10547-0.0625 0.19922-0.13672 0.30469-0.20312 0.26563-0.16406 0.52344-0.33594 0.77734-0.51172 0.22656-0.15625 0.45312-0.32031 0.66797-0.48828 0.20703-0.16016 0.40625-0.32813 0.60547-0.49609 0.24219-0.20703 0.48047-0.41016 0.70703-0.62891 0.16406-0.15234 0.31641-0.3125 0.47266-0.47266 0.23828-0.24219 0.47266-0.48828 0.69141-0.74219 0.14062-0.16016 0.26953-0.32812 0.40625-0.49219 0.20703-0.26172 0.41797-0.52344 0.61328-0.79688 0.13672-0.19141 0.26172-0.39062 0.39062-0.58594 0.16797-0.25781 0.33594-0.51562 0.48828-0.78125 0.13672-0.23438 0.25781-0.47266 0.38281-0.71484s0.25-0.48438 0.36328-0.73438c0.12109-0.26562 0.22656-0.53906 0.33594-0.8125 0.097656-0.24219 0.19141-0.48047 0.27734-0.72656 0.09375-0.27344 0.17578-0.55078 0.25781-0.82812 0.074219-0.26563 0.15234-0.53125 0.21875-0.80078 0.058594-0.25 0.10547-0.50391 0.15625-0.75781 0.058594-0.32422 0.11719-0.64453 0.16016-0.97266 0.027343-0.19922 0.046875-0.40234 0.066406-0.60547 0.039063-0.39453 0.0625-0.79297 0.074219-1.1914 0.003906-0.074218 0.015625-0.15234 0.015625-0.23047s-0.007813-0.15625-0.007813-0.23438c0-0.42969-0.015625-0.85938-0.050781-1.2891-0.011719-0.14844-0.023437-0.29688-0.039063-0.44141-0.042968-0.41016-0.097656-0.82031-0.17187-1.2305-0.03125-0.16406-0.058594-0.32422-0.089844-0.48438-0.074219-0.375-0.17188-0.74609-0.27344-1.1172-0.054687-0.19141-0.10547-0.37891-0.16797-0.57031-0.10156-0.32812-0.21875-0.65625-0.34375-0.98047-0.082032-0.21875-0.16797-0.43359-0.26172-0.64844-0.125-0.28906-0.25781-0.57812-0.40234-0.86719-0.11719-0.23047-0.23438-0.46094-0.35938-0.68359-0.078125-0.14062-0.14062-0.28516-0.22266-0.42188-35.672-60.168-44.012-97.82-43.949-118.74 0.003906-1.9844 0.097656-3.7695 0.22266-5.4648l75.734 90.258 88.969-74.656-75.75-90.277c8.7617 0.88281 20.836 3.832 36.781 11.305 19.91 9.3164 45.73 25.695 77.957 53.34 3.2383 2.7812 7.2188 4.1445 11.172 4.1445 4.8438 0 9.6523-2.0312 13.047-5.9961 1.5469-1.8008 2.6484-3.8281 3.332-5.9531 0.37891-1.0195 0.67578-2.0781 0.86328-3.1914 11.699-71.18 30.285-105.3 43.914-120.66 0.82813-0.9375 1.6406-1.8086 2.4297-2.6172l-0.015625 117.85h116.14v-117.79c1.5938 1.6406 3.2734 3.5117 5.0312 5.6797 13.324 16.621 30.332 50.832 41.309 117.54 0.011718 0.070312 0.042968 0.13281 0.054687 0.20312 0.16016 0.89844 0.38672 1.7852 0.69141 2.6562 0.046874 0.13281 0.097656 0.26172 0.14844 0.39453 0.3125 0.83203 0.68359 1.6484 1.1328 2.4297 0.066406 0.11328 0.13672 0.21875 0.20312 0.32812 0.41797 0.69922 0.88672 1.375 1.418 2.0234 0.074219 0.089844 0.13672 0.1875 0.21484 0.27734 0.019531 0.023437 0.035156 0.050781 0.054687 0.074218 0.55469 0.64453 1.1602 1.2227 1.7852 1.7656 0.14453 0.125 0.28906 0.24219 0.42969 0.35938 1.4062 1.1445 2.9609 2.0391 4.5977 2.6758 0.15625 0.0625 0.30859 0.125 0.47266 0.18359 0.81641 0.28906 1.6445 0.51953 2.4883 0.68359 0.17578 0.035156 0.35547 0.054687 0.53125 0.085937 0.88672 0.14453 1.7773 0.23828 2.6758 0.23828 0.011719 0 0.023438 0.003906 0.035157 0.003906 0.003906 0 0.003906-0.003906 0.011718-0.003906 0.003906 0 0.007813 0.003906 0.015625 0.003906 0.26953 0 0.53125-0.054688 0.79688-0.066406 0.66016-0.035156 1.3242-0.054688 1.9961-0.16797 0.015625-0.003906 0.027344-0.003906 0.042969-0.007813 0.15625-0.023437 0.30078-0.070312 0.45703-0.10156 0.76953-0.14844 1.5156-0.35156 2.2383-0.59766 0.15625-0.054688 0.30859-0.09375 0.46094-0.14844 0.83594-0.30859 1.6289-0.69531 2.3906-1.1211 0.13281-0.074218 0.26562-0.14844 0.39844-0.22266 0.78516-0.47266 1.5273-1 2.2266-1.5898 0.054687-0.046874 0.12109-0.074218 0.17578-0.125 32.215-27.645 58.035-44.02 77.941-53.332 15.961-7.4766 28.039-10.426 36.801-11.312l-75.75 90.277 88.969 74.652 75.711-90.227c0.12891 1.6875 0.21875 3.4727 0.23828 5.4375 0.066407 20.926-8.2773 58.574-43.938 118.74-0.0625 0.10547-0.10938 0.21875-0.17188 0.32422-0.16406 0.28906-0.31641 0.58203-0.46094 0.88281-0.10938 0.22266-0.21875 0.44922-0.31641 0.67578-0.12109 0.27734-0.23047 0.55859-0.33984 0.84375-0.097657 0.26172-0.19141 0.52344-0.27734 0.79297-0.078125 0.25-0.15234 0.5-0.21875 0.75391-0.082031 0.30859-0.16406 0.625-0.22656 0.9375-0.046874 0.21484-0.082031 0.42969-0.11719 0.64844-0.0625 0.35938-0.11719 0.72266-0.15625 1.0859-0.015625 0.18359-0.035156 0.37109-0.046875 0.55469-0.027344 0.39844-0.046875 0.79297-0.046875 1.1914 0 0.09375-0.011719 0.17969-0.011719 0.27344 0 0.089843 0.015625 0.17578 0.015625 0.26953 0.011719 0.375 0.035157 0.74609 0.066407 1.1172 0.023437 0.22656 0.046874 0.45312 0.070312 0.67578 0.042969 0.30469 0.09375 0.60547 0.15234 0.91016 0.050781 0.27344 0.10156 0.54297 0.16797 0.81641 0.058594 0.24609 0.125 0.49219 0.19922 0.73438 0.085938 0.30078 0.17188 0.60156 0.27734 0.89453 0.074219 0.22266 0.16406 0.4375 0.25 0.65625 0.11719 0.29688 0.23438 0.58984 0.36719 0.87891 0.10156 0.22656 0.21875 0.44922 0.33203 0.67188 0.13281 0.25781 0.26562 0.51953 0.41016 0.77344 0.14062 0.24609 0.29688 0.48438 0.45312 0.72656 0.14062 0.21484 0.27734 0.42969 0.42578 0.64062 0.17969 0.25781 0.37891 0.50391 0.57422 0.75 0.14844 0.17969 0.28906 0.36328 0.44141 0.54297 0.20703 0.23828 0.42969 0.47266 0.65625 0.69922 0.16797 0.17578 0.33984 0.34766 0.51172 0.51172 0.21484 0.20312 0.4375 0.39844 0.66406 0.58984 0.21094 0.17969 0.42969 0.35938 0.65234 0.53125 0.20312 0.15625 0.41406 0.30859 0.625 0.45703 0.26953 0.1875 0.54297 0.37109 0.82422 0.54688 0.097656 0.058593 0.1875 0.12891 0.28906 0.1875 0.074218 0.046875 0.15625 0.074219 0.23047 0.11719 0.55469 0.32031 1.1289 0.61328 1.7188 0.86719 0.066406 0.027344 0.13281 0.0625 0.19922 0.089844 0.63281 0.26562 1.2852 0.48437 1.9531 0.67187 0.18359 0.054688 0.37109 0.089844 0.55859 0.13672 0.47656 0.11719 0.95703 0.21094 1.4453 0.28906 0.23047 0.035156 0.46094 0.070312 0.69531 0.097656 0.49219 0.054688 0.99219 0.085938 1.4961 0.097656 0.14453 0.003906 0.28906 0.027344 0.42969 0.027344 0.039062 0 0.074219-0.007812 0.11328-0.007812 0.039063 0 0.074219 0.003906 0.11328 0.003906 2.1914-0.023438 4.3828-0.039063 6.5508-0.039063 71.598-0.039062 106.66 13.273 122.56 24.051 0.10937 0.074219 0.19922 0.14844 0.30859 0.21875l-116.05 20.469 20.168 114.37 116.01-20.453c-1.9219 2.6484-4.2891 5.5469-7.2656 8.7031-15.055 15.789-45.848 37.195-106.05 58.332-0.12891 0.046874-0.25 0.10547-0.37891 0.15625-0.28516 0.10547-0.5625 0.22266-0.84375 0.34375-0.25 0.10937-0.49219 0.21875-0.73438 0.33984-0.25781 0.125-0.51172 0.26562-0.76172 0.40625-0.25391 0.14453-0.50391 0.28906-0.75 0.44141-0.21875 0.13672-0.42969 0.28125-0.64063 0.42969-0.26562 0.18359-0.52344 0.37109-0.77344 0.56641-0.17969 0.14062-0.35547 0.28906-0.53125 0.4375-0.26562 0.22656-0.52344 0.45703-0.77344 0.69531-0.15234 0.14844-0.30078 0.30078-0.44922 0.44922-0.25391 0.26172-0.5 0.53125-0.73438 0.80859-0.070313 0.082032-0.14844 0.15625-0.21875 0.23828-0.066406 0.085937-0.125 0.17578-0.19531 0.26172-0.21094 0.26953-0.41016 0.54297-0.60938 0.82422-0.14062 0.20312-0.28125 0.41016-0.41016 0.61328-0.16016 0.25-0.30469 0.50391-0.45312 0.76172-0.14062 0.24609-0.27734 0.49219-0.40234 0.74609-0.11719 0.23047-0.22266 0.46875-0.32812 0.70703-0.125 0.27734-0.24609 0.55078-0.35156 0.82812-0.089844 0.23828-0.17188 0.48047-0.25391 0.72656-0.089844 0.27734-0.17969 0.55469-0.25781 0.83203-0.074219 0.27734-0.14062 0.55469-0.20312 0.83594-0.054688 0.24609-0.10938 0.49219-0.15625 0.73828-0.0625 0.32812-0.10156 0.65625-0.14062 0.98828-0.023437 0.20703-0.054687 0.41016-0.070313 0.61328-0.03125 0.36719-0.046874 0.73438-0.046874 1.1094-0.003907 0.17188-0.011719 0.34766-0.007813 0.52344 0.003906 0.37891 0.027344 0.76172 0.058594 1.1445 0.015625 0.17578 0.027343 0.34766 0.046875 0.51953 0.039062 0.35938 0.09375 0.72266 0.16016 1.0859 0.035156 0.20313 0.070312 0.40625 0.11328 0.60547 0.066407 0.32031 0.14844 0.64453 0.23828 0.96484 0.066407 0.24219 0.13672 0.48047 0.21484 0.72656 0.046875 0.14844 0.074219 0.29297 0.12891 0.44141 0.035157 0.09375 0.082032 0.17188 0.11719 0.26172 0.27344 0.73828 0.58594 1.4609 0.96094 2.1641 0.058593 0.11719 0.13281 0.21875 0.19531 0.32812 0.33984 0.60156 0.71484 1.1836 1.1328 1.7422 0.10156 0.13672 0.19531 0.27734 0.30078 0.41406 0.46094 0.58594 0.96875 1.1523 1.5156 1.6875 0.12891 0.125 0.26953 0.24219 0.40234 0.36719 0.22656 0.20703 0.44141 0.42187 0.68359 0.625 38.246 31.367 59.887 56.848 71.695 76.016 6.4531 10.496 9.9922 19.02 11.891 25.746l-102.05-58.922-58.074 100.58 102.07 58.926c-5.9648 1.4961-13.781 2.582-24.008 2.6289-22.551 0.019531-56.648-5.5703-105.93-24.141-0.13672-0.050781-0.27734-0.085937-0.41406-0.13281-0.27344-0.097656-0.54297-0.17969-0.82422-0.26172-0.26953-0.078125-0.53125-0.15234-0.80078-0.21875-0.28125-0.066406-0.5625-0.125-0.84766-0.17578-0.27734-0.054687-0.55859-0.10156-0.83594-0.13672-0.26953-0.035156-0.53516-0.0625-0.80859-0.085938-0.30078-0.023437-0.60547-0.046875-0.90625-0.058594-0.25-0.011718-0.49609-0.007812-0.74609-0.007812-0.32812 0.003906-0.65625 0.011719-0.98047 0.035156-0.23047 0.015625-0.46094 0.039063-0.69531 0.0625-0.33984 0.035156-0.67969 0.082032-1.0195 0.13672-0.11719 0.019531-0.22656 0.023437-0.34375 0.046875-0.11719 0.023438-0.23047 0.058594-0.35156 0.085938-0.3125 0.066406-0.62891 0.14062-0.9375 0.22656-0.26172 0.070312-0.51953 0.14453-0.77344 0.22656-0.25781 0.082032-0.51172 0.17188-0.76562 0.26953-0.28906 0.10547-0.57422 0.21875-0.85938 0.33984-0.21094 0.09375-0.41797 0.19141-0.62891 0.29297-0.30078 0.14453-0.59375 0.28906-0.88281 0.45312-0.19141 0.10547-0.37891 0.22266-0.56641 0.33984-0.28125 0.16797-0.55859 0.34375-0.82812 0.53125-0.19922 0.13672-0.39062 0.28516-0.58203 0.42969-0.23828 0.17969-0.47656 0.35938-0.70703 0.55469-0.21094 0.17969-0.41406 0.37109-0.625 0.55859-0.1875 0.17578-0.38281 0.35547-0.56641 0.54297-0.21484 0.21875-0.42188 0.44922-0.625 0.68359-0.16016 0.17969-0.32031 0.35938-0.47266 0.54297-0.19531 0.24219-0.38281 0.49219-0.5625 0.74609-0.14844 0.19922-0.28906 0.40234-0.42969 0.61328-0.16016 0.24219-0.30859 0.49219-0.46094 0.74609-0.14453 0.24219-0.28516 0.49219-0.41406 0.74219-0.12109 0.22656-0.23047 0.46094-0.34375 0.69531-0.13672 0.29297-0.26953 0.59375-0.39062 0.89453-0.046875 0.11328-0.097656 0.21875-0.14453 0.32812-0.042969 0.11328-0.066406 0.22266-0.10547 0.33594-0.11328 0.32031-0.21484 0.64062-0.30859 0.96484-0.066406 0.23047-0.12891 0.46094-0.1875 0.69531-0.070312 0.30078-0.13672 0.60547-0.19141 0.91797-0.050781 0.26563-0.097656 0.53125-0.13281 0.79688-0.035156 0.26953-0.066406 0.53516-0.085938 0.80859-0.027344 0.3125-0.050781 0.625-0.058594 0.9375-0.007812 0.22656-0.007812 0.45312-0.003906 0.67578 0 0.35938 0.011719 0.71875 0.035156 1.0781 0.015626 0.1875 0.035157 0.375 0.050782 0.5625 0.039062 0.39844 0.09375 0.79297 0.16016 1.1836 0.015625 0.085938 0.019531 0.16797 0.035156 0.25391 5.7773 30.789 7.9844 55.496 7.9766 75.133-0.007813 28.328-4.5625 45.879-9.3672 56.555l-40.297-110.73z"/>
  <path d="m1109.3 854.75c23.105 13.34 31.023 42.883 17.684 65.988s-42.887 31.023-65.992 17.68c-23.105-13.34-31.023-42.883-17.684-65.988 13.34-23.105 42.887-31.023 65.992-17.68"/>
  <path d="m837.08 1126.3c9.125 25.074-3.8008 52.797-28.875 61.922-25.07 9.125-52.793-3.8047-61.918-28.879-9.125-25.07 3.8047-52.793 28.875-61.918 25.07-9.125 52.793 3.8047 61.918 28.875"/>
 </g>
</svg>
