<?xml version="1.0" encoding="utf-8"?>
<!-- Generator: Adobe Illustrator 26.0.1, SVG Export Plug-In . SVG Version: 6.00 Build 0)  -->
<svg version="1.1" id="Layer_1" xmlns="http://www.w3.org/2000/svg" xmlns:xlink="http://www.w3.org/1999/xlink" x="0px" y="0px"
	 viewBox="0 0 1200 1200" style="enable-background:new 0 0 1200 1200;" xml:space="preserve">
<g>
	<path d="M464.7,609.4c5.8-5.8,5.8-15.3,0-21.1l-29.4-29.4c-9.4-9.4-25.4-2.7-25.4,10.5v7.9h-81.7c-12,0-21.8,9.8-21.8,21.8
		s9.8,21.8,21.8,21.8h81.7v7.4c0,13.3,16.1,19.9,25.4,10.5L464.7,609.4z"/>
	<path d="M909.9,849.8v-41.6c0-13.3-16.1-19.9-25.4-10.5l-5.5,5.5L824,748.3c-8.5-8.5-22.3-8.5-30.8,0c-8.5,8.5-8.5,22.3,0,30.8
		l54.9,54.9l-5.2,5.2c-9.4,9.4-2.7,25.4,10.5,25.4H895C903.3,864.7,909.9,858,909.9,849.8L909.9,849.8z"/>
	<path d="M879.3,394.8l5.2,5.2c9.4,9.4,25.4,2.7,25.4-10.5v-41.6c0-8.2-6.7-14.9-14.9-14.9h-33.7c-16.2,0-24.3,19.6-12.8,31
		l-54.9,54.9c-8.5,8.5-8.5,22.3,0,30.8c8.5,8.5,22.3,8.5,30.8,0L879.3,394.8z"/>
	<path d="M947.3,724.4v277.7c0,33.2,27.1,60.3,60.3,60.3h116.5c33.2,0,60.3-27.1,60.3-60.3V724.4c0-33.2-27.1-60.3-60.3-60.3h-116.5
		C974.4,664.1,947.3,691.1,947.3,724.4L947.3,724.4z M1124.1,718c3.5,0,6.4,2.9,6.4,6.4v277.7c0,3.5-2.9,6.4-6.4,6.4h-116.5
		c-3.5,0-6.4-2.9-6.4-6.4V724.4c0-3.5,2.9-6.4,6.4-6.4L1124.1,718L1124.1,718z"/>
	<path d="M947.3,197.9v275.3c0,33.2,27.1,60.3,60.3,60.3h116.5c33.2,0,60.3-27.1,60.3-60.3V197.9c0-33.2-27.1-60.3-60.3-60.3h-116.5
		C974.4,137.6,947.3,164.7,947.3,197.9L947.3,197.9z M1124.1,191.5c3.5,0,6.4,2.9,6.4,6.4v275.3c0,3.5-2.9,6.4-6.4,6.4h-116.5
		c-3.5,0-6.4-2.9-6.4-6.4V197.9c0-3.5,2.9-6.4,6.4-6.4L1124.1,191.5L1124.1,191.5z"/>
	<path d="M237.8,745.3c21-39.6,32.6-91.6,32.6-146.5s-11.6-106.9-32.6-146.5c-23.9-45-57.5-69.8-94.8-69.8
		c-37.3,0-70.9,24.8-94.8,69.8c-21,39.6-32.6,91.6-32.6,146.5s11.6,106.9,32.6,146.5c23.9,45,57.5,69.8,94.8,69.8
		C180.3,815.1,214,790.3,237.8,745.3L237.8,745.3z M69.6,598.8c0-92.9,38.8-162.4,73.4-162.4c34.7,0,73.4,69.4,73.4,162.4
		S177.7,761.2,143,761.2C108.3,761.2,69.6,691.7,69.6,598.8z"/>
	<path d="M658.2,371.5c-23.6,0-44.8,12.2-56.7,32.6l-94.4,161.6c-11.9,20.4-11.9,45.8,0,66.3l94.4,161.6
		c11.9,20.4,33.1,32.6,56.7,32.6s44.8-12.2,56.7-32.6l94.4-161.6c6-10.2,8.9-21.7,8.9-33.1s-3-22.9-8.9-33.1l-94.4-161.6
		C703,383.7,681.8,371.5,658.2,371.5L658.2,371.5z M668.4,431.3l94.4,161.6c2.1,3.7,2.1,8.2,0,11.9l-94.4,161.6
		c-3,5.1-7.6,5.8-10.2,5.8s-7.2-0.8-10.2-5.8l-94.4-161.6c-2.1-3.7-2.1-8.2,0-11.9L648,431.3c3-5.1,7.6-5.9,10.2-5.9
		S665.4,426.2,668.4,431.3z"/>
</g>
</svg>
