<?xml version="1.0" encoding="UTF-8"?>
<svg width="1200pt" height="1200pt" version="1.1" viewBox="0 0 1200 1200" xmlns="http://www.w3.org/2000/svg">
 <path d="m1118.6 988.29-478.7-820.84c-17.809-30.539-61.93-30.539-79.742 0l-478.7 820.84c-17.945 30.77 4.25 69.402 39.867 69.402h957.41c35.617 0 57.812-38.633 39.867-69.402zm-425.54-851.85c-41.551-71.254-144.5-71.254-186.05 0l-478.7 820.84c-41.867 71.793 9.918 161.95 93.027 161.95h957.41c83.109 0 134.89-90.152 93.027-161.95zm-100.72 278.94c21.242 0 38.461 17.223 38.461 38.465v353.84c0 21.242-17.219 38.461-38.461 38.461-21.242 0-38.461-17.219-38.461-38.461v-353.84c0-21.242 17.219-38.465 38.461-38.465zm0 546.16c21.242 0 38.461-17.219 38.461-38.461s-17.219-38.461-38.461-38.461c-21.242 0-38.461 17.219-38.461 38.461s17.219 38.461 38.461 38.461z" fill-rule="evenodd"/>
</svg>
