<?xml version="1.0" encoding="UTF-8"?>
<svg width="1200pt" height="1200pt" version="1.1" viewBox="0 0 1200 1200" xmlns="http://www.w3.org/2000/svg">
 <path d="m120.04 636.05v0.007813c4.7461 84.668 74.883 151 159.63 151 84.746 0 154.88-66.328 159.63-151v-0.007813c0.14844-2.6172-0.20312-5.3047-1.1523-7.9219l-129.92-358.12h231.49c6.3516 19.012 21.266 33.914 40.285 40.246v650.75h-103.01c-50.723 0-91.992 41.27-91.992 92.207 0 11.055 8.9453 20 20 20h390c11.055 0 20-8.9453 20-20v-0.21484c0-50.723-41.27-91.992-91.992-91.992h-103.01v-650.75c19.02-6.332 33.934-21.234 40.285-40.246h231.49l-129.92 358.12c-0.94922 2.6172-1.2969 5.3047-1.1523 7.9219v0.007813c4.7461 84.668 74.883 151 159.63 151 84.746 0 154.88-66.328 159.63-151v-0.007813c0.14844-2.6172-0.20313-5.3047-1.1523-7.9219l-139.67-385c-0.050781-0.14453-0.16016-0.25-0.21484-0.39062-0.28516-0.72266-0.73438-1.3164-1.0977-1.9922-0.76953-1.457-1.6289-2.8125-2.707-4.0195-0.53125-0.58984-1.0898-1.0898-1.6875-1.6133-1.2734-1.1211-2.6523-2.043-4.1719-2.8125-0.58984-0.29688-1.1211-0.625-1.7383-0.86328-2.2695-0.88672-4.6562-1.4961-7.1953-1.4961-0.12891 0-0.24609 0.054688-0.375 0.058594l-259.63 0.003906c-6.332-19.066-21.266-34.016-40.324-40.363v-42.84c0-11.055-8.9453-20-20-20s-20 8.9453-20 20v42.84c-19.059 6.3477-33.992 21.297-40.324 40.363h-259.63c-0.12891-0.003906-0.24609-0.058594-0.375-0.058594-2.5352 0-4.9258 0.61328-7.1953 1.4961-0.61719 0.23828-1.1484 0.56641-1.7344 0.85938-1.5195 0.76953-2.8984 1.6875-4.1758 2.8125-0.59766 0.52344-1.1562 1.0195-1.6875 1.6094-1.082 1.207-1.9453 2.5664-2.7148 4.0273-0.35938 0.67578-0.80859 1.2617-1.0898 1.9844-0.054687 0.14062-0.16406 0.25-0.21484 0.39453l-139.67 385c-0.94531 2.6172-1.2969 5.3047-1.1484 7.9219zm651.05 397.16h-342.19c7.8125-18.887 26.426-32.207 48.086-32.207h246.02c21.66 0 40.273 13.32 48.086 32.207zm-491.43-286.15c-56.309 0-104-39.043-116.62-92.109h233.24c-12.617 53.066-60.312 92.109-116.62 92.109zm-111.13-132.11 111.13-306.35 111.13 306.35zm407.64-365.02c0.011719-13.066 10.59-23.656 23.633-23.77 0.066406 0 0.12109 0.039062 0.19141 0.039062s0.125-0.039062 0.19141-0.039062c13.043 0.11328 23.621 10.703 23.633 23.77 0 0.027344-0.015625 0.050781-0.015625 0.078125 0 0.007812 0.003906 0.011719 0.003906 0.019531-0.042969 13.105-10.695 23.75-23.812 23.75s-23.77-10.645-23.812-23.75c0-0.007812 0.003906-0.011719 0.003906-0.019531 0-0.027344-0.015625-0.050781-0.015625-0.078125zm455.29 365.02h-222.27l111.13-306.35zm-111.13 132.11c-56.309 0-104-39.043-116.62-92.109h233.24c-12.617 53.066-60.312 92.109-116.62 92.109z"/>
</svg>
