<svg xmlns="http://www.w3.org/2000/svg" xmlns:xlink="http://www.w3.org/1999/xlink" version="1.1" x="0px" y="0px" viewBox="0 0 100 100" enable-background="new 0 0 100 100" xml:space="preserve"><path d="M75.5,91.5H24.3c-2.7,0-4.9-2.2-4.9-4.9V13.8c0-2.7,2.2-4.9,4.9-4.9h51.2c2.7,0,4.9,2.2,4.9,4.9v72.8  C80.4,89.3,78.2,91.5,75.5,91.5z M24.3,12.6c-0.7,0-1.2,0.5-1.2,1.2v72.8c0,0.7,0.5,1.2,1.2,1.2h51.2c0.7,0,1.2-0.5,1.2-1.2V13.8  c0-0.7-0.5-1.2-1.2-1.2H24.3z M68.2,66.9c0-1-0.8-1.8-1.8-1.8H44.9c-1,0-1.8,0.8-1.8,1.8s0.8,1.8,1.8,1.8h21.4  C67.3,68.7,68.2,67.9,68.2,66.9z M68.2,78c0-1-0.8-1.8-1.8-1.8H44.9c-1,0-1.8,0.8-1.8,1.8s0.8,1.8,1.8,1.8h21.4  C67.3,79.8,68.2,79,68.2,78z M68.2,55.9c0-1-0.8-1.8-1.8-1.8H44.9c-1,0-1.8,0.8-1.8,1.8c0,1,0.8,1.8,1.8,1.8h21.4  C67.3,57.8,68.2,57,68.2,55.9z M68.2,45c0-1-0.8-1.8-1.8-1.8H44.9c-1,0-1.8,0.8-1.8,1.8c0,1,0.8,1.8,1.8,1.8h21.4  C67.3,46.8,68.2,46,68.2,45z M68,34.1c0-1-0.8-1.8-1.8-1.8H44.9c-1,0-1.8,0.8-1.8,1.8c0,1,0.8,1.8,1.8,1.8h21.3  C67.2,35.9,68,35.1,68,34.1z M68,23.1c0-1-0.8-1.8-1.8-1.8H44.9c-1,0-1.8,0.8-1.8,1.8c0,1,0.8,1.8,1.8,1.8h21.3  C67.2,25,68,24.1,68,23.1z M33.5,26.4l4.6-4.6c0.7-0.7,0.7-1.9,0-2.6s-1.9-0.7-2.6,0l-3.3,3.3l-0.6-0.6c-0.7-0.7-1.9-0.7-2.6,0  s-0.7,1.9,0,2.6l1.9,1.9c0.4,0.4,0.8,0.5,1.3,0.5C32.6,26.9,33.1,26.7,33.5,26.4z M33.5,37.7l4.6-4.6c0.7-0.7,0.7-1.9,0-2.6  s-1.9-0.7-2.6,0l-3.3,3.3l-0.6-0.6c-0.7-0.7-1.9-0.7-2.6,0c-0.7,0.7-0.7,1.9,0,2.6l1.9,1.9c0.3,0.3,0.8,0.5,1.3,0.5l0,0  C32.6,38.2,33.1,38,33.5,37.7z M33.5,48.6l4.6-4.6c0.7-0.7,0.7-1.9,0-2.6s-1.9-0.7-2.6,0l-3.3,3.3l-0.6-0.6c-0.7-0.7-1.9-0.7-2.6,0  c-0.7,0.7-0.7,1.9,0,2.6l1.9,1.9c0.3,0.3,0.8,0.5,1.3,0.5l0,0C32.6,49.1,33.1,49,33.5,48.6z M33.5,59.5l4.6-4.6  c0.7-0.7,0.7-1.9,0-2.6s-1.9-0.7-2.6,0l-3.3,3.3L31.5,55c-0.7-0.7-1.9-0.7-2.6,0c-0.7,0.7-0.7,1.9,0,2.6l1.9,1.9  c0.3,0.3,0.8,0.5,1.3,0.5l0,0C32.6,60.1,33.1,59.9,33.5,59.5z M33.5,70.5l4.6-4.6c0.7-0.7,0.7-1.9,0-2.6s-1.9-0.7-2.6,0l-3.3,3.3  l-0.6-0.6c-0.7-0.7-1.9-0.7-2.6,0c-0.7,0.7-0.7,1.9,0,2.6l1.9,1.9c0.3,0.3,0.8,0.5,1.3,0.5l0,0C32.6,71,33.1,70.8,33.5,70.5z   M33.5,81.5l4.6-4.6c0.7-0.7,0.7-1.9,0-2.6s-1.9-0.7-2.6,0l-3.3,3.3L31.5,77c-0.7-0.7-1.9-0.7-2.6,0s-0.7,1.9,0,2.6l1.9,1.9  c0.4,0.4,0.8,0.5,1.3,0.5C32.6,82.1,33.1,81.9,33.5,81.5z"></path></svg>